:version 1.10
:name ASF
:units
  mass 1
  length 1
  angle deg
:documentation
  ASF file generated by Kaydara
:root
  axis xyz
  order  tx ty tz rx ry rz
  position 0 0 0
  orientation 0 0 0
:bonedata
  begin
    id 1
    name RightUpLegDummy
    direction -1 2.30186e-007 8.31532e-007
    length 4.46685
    axis 0 0 0 xyz
  end
  begin
    id 2
    name RightUpLeg
    direction -2.30187e-007 -1 1.24343e-010
    length 16.4045
    axis -3.49089 -0.000906625 0.000286804 xyz
    dof rx ry rz
  end
  begin
    id 3
    name RightLeg
    direction -2.30181e-007 -1 -4.17157e-009
    length 17.5097
    axis 3.68512 0.0193738 -0.131023 xyz
    dof rx ry rz
  end
  begin
    id 4
    name RightFoot
    direction 8.31421e-007 -4.51202e-011 1
    length 6.49508
    axis 4.81691e-005 -0.120479 -0.188788 xyz
    dof rx ry rz
  end
  begin
    id 5
    name RightToes
    direction 0.00124746 -0.014064 0.9999
    length 3.85082
    axis 0.000481921 0.542163 -0.142578 xyz
    dof rx ry rz
  end
  begin
    id 6
    name SpineDummy
    direction 0.0717043 0.9409 -0.331007
    length 10.0032
    axis 0 0 0 xyz
  end
  begin
    id 7
    name Spine
    direction 2.30186e-007 1 4.58806e-011
    length 9.84055
    axis -0.001389 0.000121418 2.40972e-006 xyz
    dof rx ry rz
  end
  begin
    id 8
    name Spine1
    direction 0 0 0
    length 0
    axis -0.001389 0.000121451 1.30017e-006 xyz
    dof rx ry rz
  end
  begin
    id 9
    name HEadDummy
    direction -0.00347485 0.950688 -0.310128
    length 8.00997
    axis -0.001389 0.000121451 1.30017e-006 xyz
  end
  begin
    id 10
    name HEad
    direction -0.0222688 0.980941 0.193023
    length 5.12695
    axis -0.001389 0.000121451 1.30017e-006 xyz
    dof rx ry rz
  end
  begin
    id 11
    name LeftShoulder1Dummy
    direction 0.988871 0.146793 -0.0242004
    length 3.5792
    axis -0.001389 0.000121451 1.30017e-006 xyz
  end
  begin
    id 12
    name LeftShoulder1
    direction 0.993832 0.108932 0.020779
    length 4.16823
    axis -0.001389 0.000121451 1.30017e-006 xyz
    dof rx ry rz
  end
  begin
    id 13
    name LeftArm
    direction 1 3.44807e-006 -8.31404e-007
    length 9.91437
    axis -23.1894 0.134784 0.967509 xyz
    dof rx ry rz
  end
  begin
    id 14
    name LeftForeArm
    direction 1 3.44842e-006 -8.31581e-007
    length 9.08575
    axis -9.91835 -0.06569 -0.177793 xyz
    dof rx ry rz
  end
  begin
    id 15
    name LeftHand
    direction 0.992938 -0.0411636 0.11126
    length 5.32135
    axis -0.00960232 -0.00340091 0.185173 xyz
    dof rx ry rz
  end
  begin
    id 16
    name RightShoulderDummy
    direction -0.988871 0.146793 -0.0241962
    length 3.5792
    axis -0.001389 0.000121451 1.30017e-006 xyz
  end
  begin
    id 17
    name RightShoulder
    direction -0.993832 0.108933 0.0207785
    length 4.16823
    axis 0.215806 0.000203643 -0.0068026 xyz
    dof rx ry rz
  end
  begin
    id 18
    name RightArm
    direction -1 3.90912e-006 8.31284e-007
    length 9.91437
    axis -23.2009 -0.134239 -0.964101 xyz
    dof rx ry rz
  end
  begin
    id 19
    name RightForeArm
    direction -1 3.90882e-006 8.31502e-007
    length 9.08575
    axis -9.92322 0.0658061 0.178867 xyz
    dof rx ry rz
  end
  begin
    id 20
    name RightHand
    direction -0.992843 -0.0414603 0.112003
    length 5.28593
    axis -0.00960638 0.00330671 -0.185228 xyz
    dof rx ry rz
  end
  begin
    id 21
    name LeftUpLegDummy
    direction 1 -2.30186e-007 -8.31532e-007
    length 4.46685
    axis 0 0 0 xyz
  end
  begin
    id 22
    name LeftUpLeg
    direction -2.30187e-007 -1 6.00931e-010
    length 16.4045
    axis -3.48766 0.00143442 -0.000524262 xyz
    dof rx ry rz
  end
  begin
    id 23
    name LeftLeg
    direction -2.30187e-007 -1 1.6669e-009
    length 17.5097
    axis 3.68178 -0.00654042 -0.000285133 xyz
    dof rx ry rz
  end
  begin
    id 24
    name LeftFoot
    direction 8.31532e-007 -4.54478e-011 1
    length 6.49508
    axis 1.87233e-006 4.66016e-005 -8.6538e-006 xyz
    dof rx ry rz
  end
  begin
    id 25
    name LeftToes
    direction 0.00818058 -0.00485161 0.999955
    length 3.85048
    axis 1.06247e-005 4.65869e-005 -8.65513e-006 xyz
    dof rx ry rz
  end
:hierarchy
  begin
    root RightUpLegDummy SpineDummy LeftUpLegDummy
    RightUpLegDummy RightUpLeg
    RightUpLeg RightLeg
    RightLeg RightFoot
    RightFoot RightToes
    SpineDummy Spine
    Spine Spine1
    Spine1 HEadDummy LeftShoulder1Dummy RightShoulderDummy
    HEadDummy HEad
    LeftShoulder1Dummy LeftShoulder1
    LeftShoulder1 LeftArm
    LeftArm LeftForeArm
    LeftForeArm LeftHand
    RightShoulderDummy RightShoulder
    RightShoulder RightArm
    RightArm RightForeArm
    RightForeArm RightHand
    LeftUpLegDummy LeftUpLeg
    LeftUpLeg LeftLeg
    LeftLeg LeftFoot
    LeftFoot LeftToes
  end

:SAMPLES-PER-SECOND 30
:FULLY-SPECIFIED
:DEGREES
144
root  -38.2151 22.4227 17.2767 16.339 -20.6639 -2.66939
RightUpLeg  -33.34 -3.6235 -33.1691
RightLeg  64.4024 0.957154 1.58999
RightFoot  -27.167 0.284212 1.55382
RightToes  -62.7734 -0.420885 -0.404726
Spine  22.2594 7.15179 0.276208
Spine1  36.556 17.7044 1.76216
HEad  10.0967 13.7194 -14.943
LeftShoulder1  0 -2.42657e-020 -4.95415e-022
LeftArm  -26.4319 -30.4173 -107.095
LeftForeArm  18.9867 -34.8348 -7.04491
LeftHand  0.0190761 -6.58672 -0.702192
RightShoulder  0 2.42657e-020 1.07489e-018
RightArm  -69.0729 42.4956 50.3083
RightForeArm  33.9144 16.7339 3.03048
RightHand  -0.751078 20.2348 -3.83848
LeftUpLeg  -76.2767 1.82398 16.2594
LeftLeg  91.954 -0.216343 -7.36093
LeftFoot  -19.8208 0.106389 0.608918
LeftToes  -39.5099 2.01279e-006 2.21547e-008
145
root  -37.3249 22.9606 17.6238 15.5808 -16.8864 -0.997342
RightUpLeg  -29.7172 -0.855891 -34.218
RightLeg  62.8845 -2.55939 -4.38784
RightFoot  -21.2656 0.703739 4.12492
RightToes  -61.9757 -0.413278 -0.402985
Spine  21.567 5.72968 0.442592
Spine1  35.3207 14.7992 1.97008
HEad  12.3863 16.6517 -15.8044
LeftShoulder1  0 -2.42657e-020 -4.95415e-022
LeftArm  -25.7634 -28.9627 -103.635
LeftForeArm  21.34 -34.9129 -7.06601
LeftHand  0.0140602 -7.15948 -0.595278
RightShoulder  0 2.42657e-020 1.07489e-018
RightArm  -67.8061 37.8898 50.5664
RightForeArm  30.6172 20.8468 3.84285
RightHand  -0.391422 22.1701 -1.62811
LeftUpLeg  -76.2913 -0.364605 11.9779
LeftLeg  89.6786 -0.675429 -9.65813
LeftFoot  -18.285 0.244392 1.51848
LeftToes  -39.3863 2.01279e-006 2.21547e-008
146
root  -36.6037 23.8429 17.9638 14.587 -14.3998 -0.847315
RightUpLeg  -28.453 4.22522 -32.9809
RightLeg  64.5964 -6.05663 -10.8463
RightFoot  -12.3907 0.491947 4.90738
RightToes  -55.5353 -0.352896 -0.385087
Spine  20.9836 4.79204 0.406399
Spine1  34.6419 12.79 1.72371
HEad  13.5014 20.6826 -16.644
LeftShoulder1  0 -2.42657e-020 -4.95415e-022
LeftArm  -26.9244 -26.7764 -99.9717
LeftForeArm  23.9792 -36.4175 -7.47258
LeftHand  0.027803 -7.29145 -0.80708
RightShoulder  0 2.42657e-020 1.07489e-018
RightArm  -66.688 33.7769 52.9723
RightForeArm  30.0872 27.2823 5.21139
RightHand  -1.09247 22.0695 -5.22932
LeftUpLeg  -73.7974 -0.964428 9.0317
LeftLeg  86.2807 -1.53174 -11.6801
LeftFoot  -16.331 0.306222 2.13389
LeftToes  -38.827 2.01279e-006 2.21547e-008
147
root  -35.988 24.9478 18.1634 14.2168 -11.9676 -1.15128
RightUpLeg  -29.7153 8.83542 -30.3022
RightLeg  68.1575 -6.82351 -14.1007
RightFoot  -7.90578 0.261039 4.15422
RightToes  -31.3448 -0.15329 -0.261203
Spine  20.0988 3.75582 0.433709
Spine1  33.6525 10.8342 0.754498
HEad  13.1742 25.431 -18.4816
LeftShoulder1  0 -2.42657e-020 -4.95415e-022
LeftArm  -29.768 -24.0632 -96.9205
LeftForeArm  23.2155 -38.021 -7.92427
LeftHand  0.0191135 -6.66931 -0.698717
RightShoulder  0 2.42657e-020 1.07489e-018
RightArm  -62.5012 30.9926 55.367
RightForeArm  26.7951 32.9235 6.55423
RightHand  -0.517309 24.3281 -2.03011
LeftUpLeg  -70.8508 -2.29651 7.41205
LeftLeg  81.434 -2.76504 -12.5598
LeftFoot  -13.9397 0.276193 2.25894
LeftToes  -37.6759 2.01279e-006 2.21547e-008
148
root  -35.5096 26.1631 18.1647 14.5409 -7.85062 -1.05832
RightUpLeg  -31.7919 9.73444 -26.6138
RightLeg  70.6594 -2.26219 -5.48035
RightFoot  -11.9674 0.245755 2.722
RightToes  -31.8109 -0.156588 -0.264353
Spine  18.9362 2.08441 0.422435
Spine1  32.0956 7.71775 -0.721306
HEad  11.9287 29.8591 -20.6296
LeftShoulder1  0 -2.42657e-020 -4.95415e-022
LeftArm  -33.3361 -20.6962 -94.0262
LeftForeArm  22.626 -39.5713 -8.38081
LeftHand  0.0197727 -6.54053 -0.71676
RightShoulder  0 2.42657e-020 1.07489e-018
RightArm  -53.3191 28.3322 58.5515
RightForeArm  27.4281 38.6004 8.09609
RightHand  -0.896341 23.2503 -3.98596
LeftUpLeg  -68.3175 -4.59858 6.05159
LeftLeg  74.9902 -4.76004 -13.8013
LeftFoot  -10.236 0.189936 2.12042
LeftToes  -37.4306 2.01279e-006 2.21547e-008
149
root  -35.1099 27.4393 17.9937 15.5865 -3.16844 -0.264075
RightUpLeg  -35.0864 8.429 -22.5321
RightLeg  72.4794 0.0941367 0.0404248
RightFoot  -14.7945 0.0963351 1.11961
RightToes  -40.6933 -0.224045 -0.319005
Spine  17.9753 0.155949 0.0146847
Spine1  30.781 3.72064 -2.1462
HEad  9.13045 32.7801 -22.7353
LeftShoulder1  0 -2.42657e-020 -4.95415e-022
LeftArm  -35.3943 -17.2423 -90.3681
LeftForeArm  21.395 -41.5371 -8.99097
LeftHand  0.0243146 -6.30129 -0.812563
RightShoulder  0 2.42657e-020 1.07489e-018
RightArm  -45.1343 26.0055 64.3662
RightForeArm  32.8773 45.5187 10.3581
RightHand  -1.53852 24.2027 -6.79852
LeftUpLeg  -65.9537 -5.78531 3.73682
LeftLeg  67.3721 -8.15603 -16.0231
LeftFoot  -5.80505 0.0845387 1.66724
LeftToes  -40.334 2.01279e-006 2.21547e-008
150
root  -34.7327 28.687 17.6915 17.4121 0.988953 0.793949
RightUpLeg  -40.2994 5.33651 -18.2723
RightLeg  72.6504 -0.0903561 -0.439699
RightFoot  -15.1555 0.0866414 1.02887
RightToes  -40.9716 -0.226291 -0.320545
Spine  17.5872 -1.58474 -0.498373
Spine1  30.3476 -0.220853 -3.04926
HEad  5.48017 33.9928 -25.112
LeftShoulder1  0 -2.42657e-020 -4.95415e-022
LeftArm  -37.0367 -15.3105 -87.1524
LeftForeArm  20.377 -42.5406 -9.31723
LeftHand  0.0116192 -6.1482 -0.586958
RightShoulder  0 2.42657e-020 1.07489e-018
RightArm  -34.7408 24.4617 70.0188
RightForeArm  41.2095 52.4165 13.2731
RightHand  -3.39001 23.3631 -15.9247
LeftUpLeg  -63.5919 -1.94312 -0.936568
LeftLeg  59.4527 -12.3606 -17.4753
LeftFoot  -4.53769 0.0699846 1.76627
LeftToes  -47.6476 2.01279e-006 2.21547e-008
